<?xml version="1.0" encoding="UTF-8"?>
<svg xmlns="http://www.w3.org/2000/svg" xmlns:xlink="http://www.w3.org/1999/xlink" width="1500px" height="1478px" viewBox="0 0 1500 1478" version="1.1">
<g id="surface1">
<path style=" stroke:none;fill-rule:nonzero;fill:rgb(0%,0%,0%);fill-opacity:1;" d="M 691.054688 325.402344 C 688.667969 329.269531 676.464844 353.109375 663.660156 378.4375 C 650.859375 403.765625 633.296875 438.035156 624.660156 454.421875 C 616.023438 470.8125 591.019531 519.683594 568.6875 563.1875 C 528.792969 641.5625 494.851562 707.714844 456.445312 782.207031 C 445.429688 803.363281 423.398438 846.277344 407.320312 877.5625 C 391.246094 908.554688 377.253906 935.371094 376.0625 937.15625 C 368.320312 947.882812 322.476562 1040.558594 323.664062 1042.648438 C 324.859375 1044.136719 349.269531 1045.328125 379.042969 1045.027344 L 432.335938 1044.433594 L 583.570312 741.382812 C 666.636719 574.515625 735.410156 438.035156 736.304688 438.035156 C 737.195312 438.035156 754.761719 472.007812 775.605469 513.726562 L 813.714844 589.410156 L 902.132812 589.410156 C 950.960938 589.410156 993.238281 588.816406 996.511719 587.921875 C 1005.445312 585.535156 1001.273438 550.976562 989.371094 527.726562 C 976.859375 503.894531 962.570312 490.183594 937.265625 477.671875 C 917.019531 467.832031 915.535156 467.539062 886.949219 468.433594 L 857.183594 469.328125 L 849.441406 455.917969 C 845.273438 448.46875 828.894531 418.367188 813.714844 388.871094 C 798.230469 359.367188 783.640625 331.65625 781.257812 327.1875 L 776.5 318.84375 L 736.011719 318.84375 C 697.007812 318.84375 695.222656 319.144531 691.054688 325.402344 Z M 691.054688 325.402344 "/>
<path style=" stroke:none;fill-rule:nonzero;fill:rgb(0%,0%,0%);fill-opacity:1;" d="M 917.914062 328.082031 C 917.914062 336.425781 904.8125 418.667969 901.246094 433.863281 C 899.75 439.226562 901.539062 440.714844 913.445312 443.699219 C 921.1875 445.785156 928.335938 446.378906 929.222656 445.484375 C 931.3125 443.699219 931.3125 442.804688 936.070312 412.707031 C 937.859375 401.085938 940.539062 383.800781 942.027344 373.96875 C 943.519531 364.136719 945.601562 348.640625 946.792969 339.402344 L 948.582031 322.71875 L 936.964844 320.929688 C 918.808594 317.949219 917.914062 318.25 917.914062 328.082031 Z M 917.914062 328.082031 "/>
<path style=" stroke:none;fill-rule:nonzero;fill:rgb(0%,0%,0%);fill-opacity:1;" d="M 1025.691406 432.671875 L 982.816406 474.6875 L 993.539062 485.414062 L 1004.253906 496.140625 L 1024.195312 476.476562 C 1035.511719 465.75 1055.464844 446.378906 1069.152344 433.273438 L 1093.570312 409.730469 L 1085.832031 399.890625 C 1081.664062 394.828125 1076 390.359375 1073.320312 390.359375 C 1070.648438 390.359375 1048.910156 409.429688 1025.691406 432.671875 Z M 1025.691406 432.671875 "/>
<path style=" stroke:none;fill-rule:nonzero;fill:rgb(0%,0%,0%);fill-opacity:1;" d="M 1102.5 539.648438 C 1064.691406 545.90625 1045.335938 548.292969 1034.917969 548.292969 L 1024.195312 548.292969 L 1025.984375 563.488281 C 1027.175781 572.128906 1028.363281 579.277344 1028.664062 579.578125 C 1029.257812 579.878906 1043.554688 578.683594 1060.816406 576.597656 C 1078.089844 574.515625 1105.773438 571.234375 1122.746094 569.152344 C 1147.457031 566.171875 1153.109375 564.675781 1151.921875 561.101562 C 1151.03125 558.71875 1150.136719 552.160156 1150.136719 546.503906 L 1150.136719 536.371094 L 1134.652344 536.664062 C 1126.019531 536.964844 1111.429688 538.453125 1102.5 539.648438 Z M 1102.5 539.648438 "/>
<path style=" stroke:none;fill-rule:nonzero;fill:rgb(0%,0%,0%);fill-opacity:1;" d="M 677.652344 623.382812 C 673.484375 628.746094 638.054688 698.769531 638.054688 701.75 C 638.054688 702.644531 691.949219 703.539062 758.042969 703.839844 L 877.71875 704.734375 L 877.425781 931.792969 L 877.425781 1159.15625 L 971.507812 1159.15625 L 971.800781 1150.8125 C 971.800781 1146.34375 972.097656 1044.136719 972.398438 923.75 L 972.992188 704.734375 L 1076.601562 703.839844 L 1180.203125 703.238281 L 1179.308594 662.121094 L 1178.414062 621.296875 L 929.523438 620.402344 C 732.4375 619.808594 679.738281 620.703125 677.652344 623.382812 Z M 677.652344 623.382812 "/>
<path style=" stroke:none;fill-rule:nonzero;fill:rgb(0%,0%,0%);fill-opacity:1;" d="M 1003.953125 756.878906 C 1003.660156 764.328125 1003.359375 808.429688 1003.058594 855.214844 L 1002.765625 940.140625 L 1027.476562 990.796875 C 1041.167969 1018.507812 1053.675781 1042.347656 1055.464844 1043.242188 C 1059.925781 1046.222656 1165.019531 1045.027344 1165.019531 1042.046875 C 1165.019531 1040.859375 1155.492188 1021.789062 1143.882812 1000.328125 C 1131.972656 978.574219 1117.984375 952.351562 1112.320312 941.628906 C 1089.699219 899.316406 1074.515625 871.003906 1067.367188 858.191406 C 1063.199219 850.746094 1054.570312 834.648438 1048.015625 822.4375 C 1031.042969 789.65625 1012.886719 756.285156 1008.121094 749.425781 C 1004.554688 744.0625 1004.253906 744.957031 1003.953125 756.878906 Z M 1003.953125 756.878906 "/>
</g>
</svg>
